<svg width="32" height="28" viewBox="0 0 32 28" fill="none" xmlns="http://www.w3.org/2000/svg">
<path d="M16.627 14.0495C18.6931 15.24 20.4444 16.2583 22.2055 17.2618C25.1128 18.9196 28.0398 20.5528 30.9373 22.2303C32.3639 23.0567 32.3491 23.9078 30.9077 24.7342C29.3483 25.6295 27.7742 26.4904 26.1803 27.3218C24.8865 28.0006 23.578 27.9072 22.3187 27.1889C15.2644 23.1551 8.20521 19.1262 1.15586 15.0875C-0.383874 14.2069 -0.393712 13.2821 1.1657 12.436C8.52988 8.45135 15.9039 4.4864 23.2681 0.511613C24.7242 -0.275473 26.0672 -0.172168 27.3462 0.910076C28.4383 1.8349 29.5697 2.71054 30.6765 3.61569C32.0195 4.72253 31.9162 5.67687 30.3568 6.51315C26.3279 8.67272 22.2891 10.8224 18.2602 12.9869C17.8077 13.228 17.3944 13.5477 16.627 14.0495Z" fill="#FFF1DA" style="fill:#FFF1DA;fill:color(display-p3 1.0000 0.9450 0.8534);fill-opacity:1;"/>
</svg>
