<svg width="32" height="28" viewBox="0 0 32 28" fill="none" xmlns="http://www.w3.org/2000/svg">
<path d="M15.373 13.7347C13.3069 12.5442 11.5556 11.5259 9.79448 10.5224C6.88718 8.86457 3.9602 7.23137 1.06274 5.55389C-0.363856 4.72745 -0.349098 3.87641 1.09225 3.04997C2.65167 2.15466 4.22584 1.29378 5.81969 0.462423C7.11347 -0.216441 8.422 -0.122973 9.68134 0.595243C16.7356 4.62906 23.7948 8.65796 30.8441 12.6967C32.3839 13.5773 32.3937 14.5021 30.8343 15.3482C23.4701 19.3328 16.0961 23.2978 8.73192 27.2726C7.27581 28.0597 5.93284 27.9563 4.65382 26.8741C3.56174 25.9493 2.4303 25.0736 1.32346 24.1685C-0.0195049 23.0617 0.0838001 22.1073 1.64322 21.271C5.67212 19.1115 9.71086 16.9617 13.7398 14.7972C14.1923 14.5562 14.6056 14.2364 15.373 13.7347Z" fill="#FFF1DA" style="fill:#FFF1DA;fill:color(display-p3 1.0000 0.9450 0.8534);fill-opacity:1;"/>
</svg>
